<svg height="512pt" viewBox="0 -6 512.00036 512" width="512pt" xmlns="http://www.w3.org/2000/svg"><path d="m505.097656 228.703125c-56.265625-53.75-113.863281-89.300781-172.09375-106.355469.285156-.800781.449219-1.664062.449219-2.5625l-.261719-91.976562c-.019531-6.679688 5.367188-12.117188 12.078125-12.136719l145.136719-.582031c4.164062-.019532 7.527344-3.410156 7.511719-7.574219-.015625-4.15625-3.390625-7.515625-7.542969-7.515625-.011719 0-.023438 0-.03125 0l-145.125.582031c-15.027344.042969-27.160156 12.238281-27.117188 27.269531l.257813 90.601563c-81.152344-19.410156-159.65625-2.042969-230.269531 42.433594-40.375 25.433593-68.894532 54.039062-82.300782 68.828125-7.605468 8.394531-7.730468 21.167968-.292968 29.714844 43.636718 50.125 90.683594 85.011718 140.574218 104.398437v109.523437c0 6.164063-5.015624 11.179688-11.183593 11.179688h-120.167969c-4.167969 0-7.546875 3.378906-7.546875 7.546875 0 4.164063 3.378906 7.542969 7.546875 7.542969h120.167969c14.488281 0 26.269531-11.785156 26.269531-26.269532v-104.15625c83.515625 26.9375 167.402344 9.09375 243.65625-33.601562 47.707031-26.714844 83.332031-58.210938 100.324219-74.609375 9.167969-8.84375 9.148437-23.503906-.039063-32.28125zm-199.222656 127.105469c-93.582031 42.609375-194.160156-44.867188-165.4375-143.230469 1.167969-4.003906-1.125-8.191406-5.125-9.359375s-8.191406 1.128906-9.355469 5.128906c-16.734375 57.289063 5.988281 118.347656 55.621094 151.011719-58.789063-14.824219-114.011719-51.609375-164.699219-109.839844-2.421875-2.78125-2.382812-6.9375.089844-9.667969 18.558594-20.472656 76.410156-78.085937 158.789062-102.746093-15.175781 11.121093-27.867187 25.289062-37.351562 41.902343-2.066406 3.621094-.808594 8.226563 2.8125 10.292969 3.621094 2.066407 8.226562.808594 10.289062-2.8125 48.609376-85.140625 173.507813-79.117187 214.035157 9.894531 7.199219 15.816407 10.851562 32.570313 10.851562 49.800782 0 47.089844-27.679687 90.121094-70.519531 109.625zm188.785156-105.679688c-19.96875 19.269532-74.683594 67.589844-146.824218 95.648438 27.308593-25.265625 43.648437-61.226563 43.648437-99.589844 0-19.40625-4.105469-38.261719-12.207031-56.054688-8.953125-19.660156-22.308594-36.480468-38.578125-49.507812 51.878906 17.589844 103.386719 50.664062 153.976562 98.988281 2.980469 2.847657 2.976563 7.625-.015625 10.515625zm0 0"/><path d="m359.207031 220.78125-44.777343-13.078125c-4-1.164063-8.191407 1.128906-9.359376 5.128906-1.167968 4 1.128907 8.1875 5.128907 9.355469l24.324219 7.105469-70.980469 29.316406v-30.476563c0-5.582031-5.863281-9.21875-10.859375-6.777343l-101.09375 49.449219c-3.742188 1.832031-5.292969 6.351562-3.460938 10.09375 1.828125 3.742187 6.347656 5.292968 10.089844 3.460937l90.234375-44.136719v29.667969c0 5.359375 5.453125 9.023437 10.425781 6.972656l82.300782-33.992187-11.324219 22.503906c-2.53125 5.039062 1.164062 10.9375 6.734375 10.9375 2.761718 0 5.421875-1.519531 6.746094-4.15625l20.074218-39.898438c2.652344-4.082031.867188-9.996093-4.203125-11.476562zm0 0"/><path d="m490.375 38.542969h-127.75c-4.167969 0-7.546875 3.378906-7.546875 7.542969 0 4.167968 3.378906 7.546874 7.546875 7.546874h127.75c4.164062 0 7.542969-3.378906 7.542969-7.546874 0-4.164063-3.378907-7.542969-7.542969-7.542969zm0 0"/><path d="m490.375 84.476562h-17.101562c-4.164063 0-7.542969 3.378907-7.542969 7.546876 0 4.164062 3.378906 7.542968 7.542969 7.542968h17.101562c4.164062 0 7.542969-3.378906 7.542969-7.542968 0-4.167969-3.378907-7.546876-7.542969-7.546876zm0 0"/><path d="m362.625 84.476562c-4.167969 0-7.546875 3.378907-7.546875 7.546876 0 4.164062 3.378906 7.542968 7.546875 7.542968h80.472656c4.164063 0 7.542969-3.378906 7.542969-7.542968 0-4.167969-3.378906-7.546876-7.542969-7.546876zm0 0"/><path d="m14.71875 467.3125h108.609375c4.164063 0 7.542969-3.378906 7.542969-7.546875 0-4.164063-3.378906-7.542969-7.542969-7.542969h-108.609375c-4.167969 0-7.546875 3.378906-7.546875 7.542969 0 4.167969 3.378906 7.546875 7.546875 7.546875zm0 0"/><path d="m7.171875 425.5625c0 4.167969 3.378906 7.546875 7.546875 7.546875h108.609375c4.164063 0 7.542969-3.378906 7.542969-7.546875 0-4.164062-3.378906-7.542969-7.542969-7.542969h-108.609375c-4.167969 0-7.546875 3.378907-7.546875 7.542969zm0 0"/><path d="m123.328125 398.902344c4.164063 0 7.542969-3.375 7.542969-7.542969s-3.378906-7.542969-7.542969-7.542969h-41.207031c-4.167969 0-7.542969 3.375-7.542969 7.542969s3.375 7.542969 7.542969 7.542969zm0 0"/></svg>