<?xml version="1.0" encoding="iso-8859-1"?>
<!-- Generator: Adobe Illustrator 19.0.0, SVG Export Plug-In . SVG Version: 6.00 Build 0)  -->
<svg version="1.1" id="Capa_1" xmlns="http://www.w3.org/2000/svg" xmlns:xlink="http://www.w3.org/1999/xlink" x="0px" y="0px"
	 viewBox="0 0 480 480" style="enable-background:new 0 0 480 480;" xml:space="preserve">
<g>
	<g>
		<path d="M432,147.056v-5.952l-43.2-51.848l-68.8-25.8l-68.8,25.8L208,141.104V192h-88v-32h1.024
			c15.022-0.021,27.183-12.215,27.163-27.237c-0.002-1.597-0.145-3.191-0.427-4.763l-9.024-49.664
			c-2.763-14.766-16.973-24.496-31.739-21.733C95.962,58.667,87.329,67.3,85.264,78.336L76.24,128
			c-2.651,14.786,7.187,28.922,21.973,31.573c1.572,0.282,3.166,0.425,4.763,0.427H104v32H48v-56.8
			c18.613-3.825,31.979-20.198,32-39.2V40C80,17.909,62.091,0,40,0S0,17.909,0,40v56c0.021,19.002,13.387,35.375,32,39.2V192H0v288
			h480V171.056L432,147.056z M224,146.896l36.8-44.152l59.2-22.2l59.2,22.2l36.8,44.152V192h-56v-48h-80v48h-56V146.896z M344,160
			v32h-16v-32H344z M312,160v32h-16v-32H312z M102.976,144c-6.186-0.027-11.178-5.064-11.15-11.25
			c0.003-0.643,0.061-1.285,0.174-1.918l9.024-49.656c1.187-6.071,7.07-10.03,13.141-8.844c4.472,0.874,7.969,4.371,8.844,8.844
			L132,130.832c1.087,6.089-2.968,11.907-9.058,12.994c-0.633,0.113-1.275,0.171-1.918,0.174H120v-16h-16v16H102.976z M16,96V40
			c0-13.255,10.745-24,24-24s24,10.745,24,24v56c-0.042,10.134-6.445,19.15-16,22.528V88H32v30.528
			C22.445,115.15,16.042,106.134,16,96z M16,208h108.688L16,316.688V208z M16,339.312L147.312,208h6.008L16,420.84V339.312z M16,464
			v-13.648L172.36,208h8L82.496,464H16z M99.624,464l97.88-256h8.96l-45.176,256H99.624z M232,464h-54.464l45.176-256H232V464z
			 M248,464V208h9.288l45.176,256H248z M318.712,464l-45.176-256h8.96l97.88,256H318.712z M464,464h-66.496l-97.88-256h8
			L464,450.352V464z M464,420.84L326.68,208h6.008L464,339.312V420.84z M464,316.688L355.312,208H464V316.688z M464,192h-32v-27.056
			l32,16V192z"/>
	</g>
</g>
<g>
	<g>
		<rect x="312" y="104" width="16" height="16"/>
	</g>
</g>
<g>
	<g>
		<path d="M204,0c-19.882,0-36,16.118-36,36s16.118,36,36,36s36-16.118,36-36S223.882,0,204,0z M204,56c-11.046,0-20-8.954-20-20
			s8.954-20,20-20s20,8.954,20,20S215.046,56,204,56z"/>
	</g>
</g>
<g>
</g>
<g>
</g>
<g>
</g>
<g>
</g>
<g>
</g>
<g>
</g>
<g>
</g>
<g>
</g>
<g>
</g>
<g>
</g>
<g>
</g>
<g>
</g>
<g>
</g>
<g>
</g>
<g>
</g>
</svg>
